<?xml version="1.0" encoding="UTF-8"?>
<svg viewBox="0 0 58.716042 43.822392" xmlns="http://www.w3.org/2000/svg">
 <g transform="translate(-245.98 -415.38)" stroke="#000">
  <path d="m299.23016,437.87005c.07855.01708.14672.08953.21385.13737 .15479.12106.30069.25266.44817.38231 .22156.21325.42363.4461.62957.6743 .21754.23688.41709.48895.61352.74323 .14625.18169.26643.38042.38053.5829 .10145.1775.16089.37063.21595.56581 .05027.20344.07491.41137.09915.61906 .02703.24523.00084.49184-.01939.7365s-.06431.4722-.11448.70525c-.05248.20894-.13024.41017-.20616.61137-.07961.19371-.16204.38627-.24436.57885-.10639.24801-.20004.50134-.29754.75295-.10799.26891-.20246.54281-.29619.81689-.08725.2477-.15727.50027-.22151.75463-.07801.2908-.12585.58774-.17187.8848-.03839.26832-.0603.53849-.0819.80854-.01851.22635-.0268.45321-.03243.68011 .00022.20743.00763.41457.01933.62161 .01755.21169.04506.42224.07235.63283 .02176.18929.05351.37731.084.56532 .02761.17353.06854.34434.10898.51516s.09263.32632.14947.4862c.05953.16915.13094.33379.19914.49956s.14746.33706.22629.50336 .16226.34405.25093.51249 .18496.34353.28129.51316c.08563.1476-.17239-.27992.26976.43437 .41683.67338-.40801.26723-.57491.37655-.08799-.10569-.1775-.20985-.24752-.32936-.09138-.14495-.18273-.28976-.26741-.43884-.09499-.17121-.18886-.34304-.28074-.51596s-.17273-.34126-.25135-.51576-.15535-.33668-.22691-.50781-.14066-.33229-.20055-.5025c-.05674-.16297-.11039-.32695-.14913-.49538s-.08158-.34581-.10983-.52127c-.0287-.18931-.05828-.37861-.08007-.56889-.02712-.21239-.05481-.42472-.07276-.63813-.01189-.209-.01948-.41807-.01825-.6275 .00641-.22884.01477-.45767.03483-.68586 .02402-.27183.04931-.54359.08764-.81387 .0468-.29896.09531-.59765.16831-.89166 .06381-.2571.13316-.51247.22287-.7621 .0949-.27511.19072-.54995.2989-.82023 .09458-.25288.18897-.5059.28911-.75663 .08162-.19186.16288-.38387.24348-.57612 .07605-.19749.15325-.39516.20785-.59993 .05142-.22925.09587-.45971.11698-.69416 .02002-.2392.04519-.47996.01489-.71962-.02434-.20362-.04847-.40772-.09936-.60688-.05596-.18847-.1162-.37503-.21516-.54658-.11288-.19753-.23147-.39154-.37239-.57091-.19364-.2522-.38918-.5033-.60618-.73623-.20802-.22741-.41117-.46071-.64289-.66476-.14778-.12831-.29402-.25881-.45255-.37399-.07339-.04-.13232-.0994-.22131-.08341l.82796-.13114z" display="block" stroke-width="5.558"/>
  <g transform="matrix(.15547 0 0 .15547 208.03 386.35)" fill="#fea" stroke-width="6.4319">
   <path d="m247.32 208.72c5.4188 328.2 241.81 329.15 234.29 0-57.143 42.857-168.57 40-234.29 0z" display="block"/>
   <path d="m319.9 369.92c6.6645 55.004 90.637 47.359 93.303 0" display="block"/>
   <path d="m390.54 344.59c3.6655 25.992-59.981 29.324-51.983-11.996 6.4076-33.106-37.321-73.31-86.639-73.31" display="block"/>
  </g>
  <g transform="matrix(.14776 .048365 -.048365 .14776 243.13 373.08)" fill="#fea" stroke-width="6.4319">
   <path d="m247.32 208.72c5.4188 328.2 241.81 329.15 234.29 0-57.143 42.857-168.57 40-234.29 0z" display="block"/>
   <path d="m319.9 369.92c6.6645 55.004 90.637 47.359 93.303 0" display="block"/>
   <path d="m390.54 344.59c3.6655 25.992-59.981 29.324-51.983-11.996 6.4076-33.106-37.321-73.31-86.639-73.31" display="block"/>
  </g>
  <path d="m268.73715,425.65744 .13566.12106 .30219.27987c.15118.13887.30193.278.4556.4142 .20661.18716.41904.36798.62966.55076 .24579.20863.49192.4169.73954.62343 .23589.19274.4714.38592.70821.57756l.6902.58201 .63952.55539c.19893.18085.40409.3548.60929.52865 .18829.16316.38399.31737.57997.47143 .16305.13221.33517.25306.50506.37651s.33756.22557.50985.33309 .35259.212.53241.31221l.54951.2984c.18775.10594.38211.19968.57584.29434 .27617.13244.55866.25166.83939.37435 .41733.18402.84514.34296 1.27292.5015l1.07932.38661 .74392.26563 .58489.19175 .63206.20876c.22991.07674.46217.14629.69344.2189l.86944.27476 1.28456.43553 .95104.32666 .78721.26417 .90496.30447 1.08912.35404 1.25147.39235 1.31854.38977c.46943.1307.94062.25532 1.41348.37344l.98593.23539 .70511.15688c.21962.04548.43983.08795.65985.13143 .25274.05479.5059.10727.75986.15619l.66724.1157c.18802.03542.37784.05933.56777.08195 .16639.0175.33344.0279.50015.04131 .18077.02015.36234.03092.54388.04153 .20398.01059.4082.01512.61238.02004l.51222.00845c.31613.00273 1.13959.01642-.31632-.00636 .13786-.0087.27585-.01505.41382-.0216 .06637-.00143.13218-.01043.19826-.01565l1.18114.28293c-.06623.00675-.52425-.15462-.59044-.14767l-.41601.02002c-.41847.00499-.83792.01854-1.25691.00966l-.50765-.01-.61355-.02249c-.18242-.01186-.36474-.02478-.54658-.0437-.16677-.01201-.3337-.0231-.49968-.04364-.18893-.02488-.37762-.0514-.5649-.08668l-.66374-.11744c-.25433-.05114-.50795-.10555-.76244-.156l-.65955-.13362c-.23332-.05292-.46695-.10455-.69992-.15889l-.97197-.23843c-.47007-.12136-.93915-.24654-1.40673-.37681-.4423-.12671-.8846-.25362-1.32358-.39112l-1.25614-.39206c-.36539-.1165-.73128-.23141-1.09463-.35395l-.9112-.30375-.78697-.26588-.93899-.32709c-.42819-.14646-.85496-.29723-1.28685-.43293l-.88392-.27377c-.23131-.07183-.46283-.14304-.69274-.21911l-.63755-.20926-.58138-.19354-.73498-.26695-1.06518-.38929c-.42998-.1613-.86052-.3217-1.28168-.50451-.28566-.12292-.57399-.24025-.85403-.37538-.19457-.09552-.38882-.19169-.57795-.29745l-.55135-.30032c-.17972-.10125-.35848-.20405-.53191-.31554s-.34538-.21931-.51145-.33852-.33967-.24672-.50139-.38029c-.19527-.15527-.38982-.31133-.5789-.47389l-.60799-.52998c-.21199-.18549-.42332-.37174-.63777-.55449-.22883-.19435-.45611-.39054-.68856-.5807l-.70506-.57882c-.24777-.20746-.4957-.41477-.74144-.62457-.21358-.18284-.42809-.3647-.63869-.55088l-.46042-.41578c-.10334-.09248-.20635-.18533-.31069-.27671-.04642-.03284-.08498-.08172-.14085-.09962l.80475-.08795z" display="block" stroke-width="5.558"/>
 </g>
</svg>
